# xmcd
#
# Track frame offsets:
#	150
#	14436
#	27186
#	38655
#	53006
#	67437
#	80165
#	93085
#	107968
#	120156
#	134420
#	147405
#	160605
#	172346
#	186559
#	199922
#	214235
#	228830
#	242305
#	255261
#	269041
#	282218
#	295787
#	309197
#	322368
#	335273
#
# Disc length: 4634 seconds
#
# Revision: 2
# Processed by: cddbd v1.5.2PL0 Copyright (c) Steve Scherf et al.
# Submitted via: EasyCDDAExtractor 10.0.2.1
#
DISCID=8412181a
DTITLE=The Carter Family - In The Shadow Of Clinch Mountain - Vol. 06
DYEAR=2001
DGENRE=Bluegrass
TTITLE0=Evening Bells Are Ringing
TTITLE1=Mountains Of Tennessee
TTITLE2=I'll Be Home Someday
TTITLE3=Faded Coat Of Blue
TTITLE4=Sailor Boy
TTITLE5=Glory To The Lamb
TTITLE6=Behind Those Stone Walls
TTITLE7=Sinking In The Lonesome Sea
TTITLE8=He Took A White Rose From Her Hair
TTITLE9=Can The Circle Be Unbroken (Bye And Bye)
TTITLE10=Let's Be Lovers Again
TTITLE11=Your Mother Still Prays (For You Jack)
TTITLE12=Kissing Is A Crime
TTITLE13=Don't Forget Me Little Darling
TTITLE14=Sad And Lonesome Day
TTITLE15=By The Touch Of Her Hand
TTITLE16=East Virginia Blues No. 2
TTITLE17=My Old Virginia Home
TTITLE18=My Virginia Rose Is Blooming
TTITLE19=My Texas Girl
TTITLE20=No Other's Bride I'll Be
TTITLE21=Gathering Flowers From The Hillside
TTITLE22=Gospel Ship
TTITLE23=Little Black Train
TTITLE24=Keep On The Sunny Side
TTITLE25=River Of Jordan
EXTD=Bear Family CD 15865 LK
EXTT0=11-DEC-1934, Camden
EXTT1=11-DEC-1934, Camden
EXTT2=11-DEC-1934, Camden
EXTT3=11-DEC-1934, Camden
EXTT4=11-DEC-1934, Camden
EXTT5=05-MAY-1935, New York City
EXTT6=05-MAY-1935, New York City
EXTT7=05-MAY-1935, New York City
EXTT8=06-MAY-1935, New York City
EXTT9=06-MAY-1935, New York City
EXTT10=06-MAY-1935, New York City
EXTT11=06-MAY-1935, New York City
EXTT12=06-MAY-1935, New York City
EXTT13=07-MAY-1935, New York City
EXTT14=07-MAY-1935, New York City
EXTT15=07-MAY-1935, New York City
EXTT16=07-MAY-1935, New York City
EXTT17=07-MAY-1935, New York City
EXTT18=07-MAY-1935, New York City
EXTT19=07-MAY-1935, New York City
EXTT20=07-MAY-1935, New York City
EXTT21=07-MAY-1935, New York City
EXTT22=07-MAY-1935, New York City
EXTT23=07-MAY-1935, New York City
EXTT24=08-MAY-1935, New York City
EXTT25=08-MAY-1935, New York City
PLAYORDER=
